<svg xmlns="http://www.w3.org/2000/svg" viewBox="0 0 512 512" role="img" aria-label="Software developer icon">
  <defs>
    <linearGradient id="bg" x1="0" y1="0" x2="1" y2="1">
      <stop offset="0%" stop-color="#1e1b4b"/>
      <stop offset="55%" stop-color="#4338ca"/>
      <stop offset="100%" stop-color="#06b6d4"/>
    </linearGradient>
    <linearGradient id="screen" x1="0" y1="0" x2="1" y2="1">
      <stop offset="0%" stop-color="#0f172a"/>
      <stop offset="100%" stop-color="#111827"/>
    </linearGradient>
  </defs>

  <rect width="512" height="512" rx="120" fill="url(#bg)"/>
  <circle cx="392" cy="118" r="40" fill="#22d3ee" opacity="0.16"/>
  <circle cx="126" cy="110" r="24" fill="#c7d2fe" opacity="0.18"/>
  <circle cx="138" cy="356" r="18" fill="#a78bfa" opacity="0.18"/>

  <rect x="120" y="148" width="272" height="194" rx="28" fill="url(#screen)" stroke="#93c5fd" stroke-opacity="0.25" stroke-width="8"/>
  <rect x="142" y="170" width="228" height="24" rx="12" fill="#1e293b"/>
  <circle cx="163" cy="182" r="6" fill="#fb7185"/>
  <circle cx="186" cy="182" r="6" fill="#fbbf24"/>
  <circle cx="209" cy="182" r="6" fill="#34d399"/>

  <path d="M196 232l-34 24 34 24" fill="none" stroke="#22d3ee" stroke-width="18" stroke-linecap="round" stroke-linejoin="round"/>
  <path d="M316 232l34 24-34 24" fill="none" stroke="#a78bfa" stroke-width="18" stroke-linecap="round" stroke-linejoin="round"/>
  <path d="M248 228l-18 56" fill="none" stroke="#f8fafc" stroke-width="18" stroke-linecap="round"/>

  <rect x="168" y="356" width="176" height="22" rx="11" fill="#cbd5e1" opacity="0.92"/>
  <rect x="188" y="378" width="136" height="18" rx="9" fill="#94a3b8" opacity="0.78"/>

  <text x="256" y="448" text-anchor="middle" fill="#f8fafc" font-family="Inter, system-ui, sans-serif" font-size="44" font-weight="800">DEV</text>
</svg>